<svg width="24" height="25" viewBox="0 0 24 25" fill="none" xmlns="http://www.w3.org/2000/svg">
<g id="24 / facebook">
<path id="icon" d="M20.0524 2.9917H3.94765C3.70178 3.0083 3.47027 3.11347 3.29602 3.28772C3.12177 3.46197 3.0166 3.69348 3 3.93935V20.0441C3.00139 20.295 3.10168 20.5352 3.2791 20.7126C3.45651 20.89 3.69674 20.9903 3.94765 20.9917H12.5686V13.9812H10.2942V11.3289H12.6628V9.33935C12.6118 8.86222 12.6666 8.3797 12.8233 7.92617C12.9801 7.47265 13.2349 7.05927 13.5697 6.71549C13.9045 6.37171 14.311 6.106 14.7602 5.93727C15.2094 5.76855 15.6903 5.70097 16.1686 5.73935C17.1162 5.73935 17.9686 5.83358 18.2524 5.83358V8.29746H16.8314C15.6942 8.29746 15.5047 8.86605 15.5047 9.62417V11.3289H18.1571L17.778 14.0765H15.4105V20.9917H20.0524C20.3033 20.9903 20.5435 20.89 20.7209 20.7126C20.8983 20.5352 20.9986 20.295 21 20.0441V3.93935C20.9834 3.69348 20.8782 3.46197 20.704 3.28772C20.5297 3.11347 20.2982 3.0083 20.0524 2.9917V2.9917Z" fill="#6E7491"/>
</g>
</svg>
