<svg width="24" height="25" viewBox="0 0 24 25" fill="none" xmlns="http://www.w3.org/2000/svg">
<g id="24 / instagram">
<path id="Union" fill-rule="evenodd" clip-rule="evenodd" d="M1.25 7.44624C1.25 4.03203 4.04033 1.2417 7.45455 1.2417H16.5455C19.9597 1.2417 22.75 4.03203 22.75 7.44624V16.5372C22.75 19.9514 19.9597 22.7417 16.5455 22.7417H7.45455C4.04033 22.7417 1.25 19.9514 1.25 16.5372V7.44624ZM7.45455 2.7417C4.86876 2.7417 2.75 4.86046 2.75 7.44624V16.5372C2.75 19.1229 4.86876 21.2417 7.45455 21.2417H16.5455C19.1312 21.2417 21.25 19.1229 21.25 16.5372V7.44624C21.25 4.86046 19.1312 2.7417 16.5455 2.7417H7.45455ZM12 15.4917C13.933 15.4917 15.5 13.9247 15.5 11.9917C15.5 10.0587 13.933 8.4917 12 8.4917C10.067 8.4917 8.5 10.0587 8.5 11.9917C8.5 13.9247 10.067 15.4917 12 15.4917ZM12 16.9917C14.7614 16.9917 17 14.7531 17 11.9917C17 9.23028 14.7614 6.9917 12 6.9917C9.23858 6.9917 7 9.23028 7 11.9917C7 14.7531 9.23858 16.9917 12 16.9917ZM17 6.9917C17.5523 6.9917 18 6.54398 18 5.9917C18 5.43941 17.5523 4.9917 17 4.9917C16.4477 4.9917 16 5.43941 16 5.9917C16 6.54398 16.4477 6.9917 17 6.9917Z" fill="#6E7491"/>
</g>
</svg>
