<svg width="24" height="25" viewBox="0 0 24 25" fill="none" xmlns="http://www.w3.org/2000/svg">
<g id="24 / twitter">
<path id="path" d="M23 6.15334C22.7129 6.59306 22.3882 7.00312 22.0259 7.38352C21.6636 7.76392 21.2705 8.11116 20.8467 8.42525C20.8535 8.52296 20.8586 8.61894 20.8621 8.71316C20.8655 8.80739 20.8672 8.90336 20.8672 9.00108C20.8672 9.88053 20.7749 10.7495 20.5903 11.608C20.4058 12.4665 20.1392 13.2971 19.7905 14.0998C19.2847 15.2654 18.6523 16.3071 17.8936 17.225C17.1348 18.1428 16.2751 18.9193 15.3147 19.5545C14.3543 20.1896 13.3066 20.6747 12.1719 21.0098C11.0371 21.3448 9.84766 21.5123 8.60351 21.5123C7.42773 21.5123 6.281 21.3465 5.16333 21.015C4.04565 20.6835 2.99121 20.1896 2 19.5335C2.33496 19.5754 2.67676 19.5964 3.02539 19.5964C4.00293 19.5964 4.94799 19.4358 5.86059 19.1148C6.77319 18.7937 7.6123 18.326 8.37792 17.7118C7.91992 17.7048 7.479 17.6263 7.05517 17.4763C6.63134 17.3262 6.2434 17.1168 5.89135 16.8481C5.5393 16.5794 5.23168 16.26 4.9685 15.8901C4.70531 15.5202 4.50194 15.1119 4.35839 14.6652C4.49511 14.6861 4.63012 14.7035 4.76342 14.7175C4.89672 14.7315 5.03173 14.7384 5.16845 14.7384C5.55126 14.7384 5.92723 14.6861 6.29638 14.5814C5.79052 14.4767 5.32739 14.2917 4.90698 14.0265C4.48657 13.7613 4.12255 13.4385 3.81493 13.0581C3.50732 12.6777 3.26806 12.2484 3.09716 11.7703C2.92626 11.2922 2.84081 10.7914 2.84081 10.2679V10.2156C3.44238 10.5645 4.09521 10.7495 4.79931 10.7705C4.49853 10.5611 4.23022 10.322 3.99438 10.0533C3.75854 9.78456 3.55859 9.49315 3.39453 9.17907C3.23046 8.86498 3.104 8.53344 3.01513 8.18445C2.92626 7.83546 2.88183 7.47601 2.88183 7.10608C2.88183 6.71521 2.92968 6.33307 3.02538 5.95966C3.12109 5.58624 3.26806 5.23201 3.4663 4.89698C4.01318 5.58798 4.62158 6.20744 5.2915 6.75535C5.96142 7.30326 6.67407 7.77265 7.42944 8.16351C8.18481 8.55438 8.97607 8.86323 9.80321 9.09008C10.6304 9.31692 11.478 9.45128 12.3462 9.49316C12.3052 9.33262 12.2761 9.16685 12.259 8.99585C12.2419 8.82484 12.2334 8.65559 12.2334 8.48807C12.2334 7.88083 12.3462 7.31024 12.5718 6.77629C12.7974 6.24233 13.105 5.77643 13.4946 5.37859C13.8843 4.98074 14.3406 4.66665 14.8635 4.43632C15.3865 4.20599 15.9453 4.09082 16.54 4.09082C17.1416 4.09082 17.7141 4.21122 18.2576 4.45202C18.801 4.69282 19.2778 5.03658 19.688 5.48328C20.1733 5.38556 20.6433 5.24771 21.0979 5.06973C21.5525 4.89175 21.9917 4.67363 22.4155 4.41538C22.2583 4.9249 22.0173 5.38906 21.6926 5.80784C21.3679 6.22662 20.98 6.57213 20.5288 6.84434C21.3901 6.73964 22.2139 6.50931 23 6.15334L23 6.15334Z" fill="#6E7491"/>
</g>
</svg>
