<svg width="59" height="55" viewBox="0 0 59 55" fill="none" xmlns="http://www.w3.org/2000/svg">
<g id="airplane" clip-path="url(#clip0_2749_20388)">
<path id="Vector" fill-rule="evenodd" clip-rule="evenodd" d="M32.2561 18.4684L39.1319 14.9006C40.266 14.3121 41.1635 13.3815 41.6272 12.3136C42.0908 11.2456 42.0825 10.1277 41.6041 9.20575C41.1258 8.28384 40.2165 7.63346 39.0763 7.39768C37.9362 7.1619 36.6585 7.36003 35.5245 7.94849L11.7809 20.269C11.4632 20.4337 11.1146 20.5232 10.7741 20.5275C10.4336 20.5318 10.1146 20.4508 9.85279 20.2936L8.44153 19.4481C8.17976 19.2909 7.86074 19.2099 7.52021 19.2142C7.17968 19.2185 6.83108 19.308 6.51346 19.4727L3.32359 21.1279C3.0403 21.2746 2.79104 21.4763 2.59818 21.7147C2.40532 21.9531 2.2749 22.2209 2.21861 22.494C2.16233 22.767 2.18194 23.0369 2.2757 23.2792C2.36946 23.5216 2.53442 23.729 2.75578 23.8826L10.0286 28.9328C10.2904 29.1146 10.6206 29.214 10.978 29.2186C11.3355 29.2232 11.7045 29.1329 12.0394 28.9589L18.6466 25.5304C18.926 25.3856 19.23 25.2986 19.532 25.2771C19.834 25.2556 20.1248 25.3002 20.379 25.407C20.6332 25.5138 20.843 25.6796 20.9901 25.8898C21.1372 26.1001 21.2172 26.3484 21.223 26.613L21.3118 30.5537C21.3179 30.8179 21.3979 31.0658 21.545 31.2757C21.6921 31.4856 21.9017 31.6511 22.1555 31.7578C22.4093 31.8646 22.6997 31.9092 23.0013 31.888C23.3028 31.8667 23.6065 31.7801 23.8857 31.6358L27.3783 29.8235C27.6349 29.6905 27.8638 29.5122 28.0482 29.302C28.2326 29.0918 28.3678 28.8549 28.4436 28.6089L31.1926 19.6821C31.2684 19.4364 31.4033 19.1998 31.5874 18.9897C31.7714 18.7797 32 18.6015 32.2561 18.4684ZM15.9887 16.3208L24.113 12.1051L18.9019 10.2206C18.653 10.1306 18.3737 10.0976 18.0861 10.1243C17.7985 10.1511 17.5105 10.2367 17.245 10.3745L14.0261 12.0448C13.7347 12.1961 13.4796 12.4055 13.285 12.653C13.0904 12.9005 12.9628 13.1779 12.9142 13.4589C12.8656 13.74 12.8977 14.0153 13.0074 14.2588C13.1171 14.5023 13.3007 14.7058 13.541 14.8502L15.9887 16.3208Z" fill="#6E7491"/>
</g>
<defs>
<clipPath id="clip0_2749_20388">
<rect width="46.2467" height="37.5952" fill="white" transform="translate(0.168701 21.4685) rotate(-27.4247)"/>
</clipPath>
</defs>
</svg>
