<svg width="43" height="45" viewBox="0 0 43 45" fill="none" xmlns="http://www.w3.org/2000/svg">
<g id="Group">
<path id="Vector" d="M25.4 42.9785H17.6C10.2466 42.9785 6.56885 42.9785 4.2854 40.5156C2 38.0548 2 34.0914 2 26.1668V21.9639C2 14.0393 2 10.0759 4.2854 7.6151C6.56885 5.15219 10.2466 5.15219 17.6 5.15219H25.4C32.7535 5.15219 36.4311 5.15219 38.7146 7.6151C41 10.0759 41 14.0393 41 21.9639V26.1668C41 34.0914 41 38.0548 38.7146 40.5156C37.4412 41.8899 35.735 42.4973 33.2 42.7641M11.75 5.15219V2M31.25 5.15219V2M40.025 15.6595H19.0625M2 15.6595H9.55625" stroke="#6E7491" stroke-width="2.72227" stroke-linecap="round"/>
<path id="Vector_2" d="M33.2005 32.4709C33.2005 33.0283 32.9951 33.5628 32.6294 33.9569C32.2637 34.351 31.7677 34.5724 31.2505 34.5724C30.7334 34.5724 30.2374 34.351 29.8717 33.9569C29.506 33.5628 29.3005 33.0283 29.3005 32.4709C29.3005 31.9136 29.506 31.3791 29.8717 30.985C30.2374 30.5909 30.7334 30.3695 31.2505 30.3695C31.7677 30.3695 32.2637 30.5909 32.6294 30.985C32.9951 31.3791 33.2005 31.9136 33.2005 32.4709ZM33.2005 24.0651C33.2005 24.6224 32.9951 25.1569 32.6294 25.551C32.2637 25.9451 31.7677 26.1665 31.2505 26.1665C30.7334 26.1665 30.2374 25.9451 29.8717 25.551C29.506 25.1569 29.3005 24.6224 29.3005 24.0651C29.3005 23.5077 29.506 22.9732 29.8717 22.5791C30.2374 22.185 30.7334 21.9636 31.2505 21.9636C31.7677 21.9636 32.2637 22.185 32.6294 22.5791C32.9951 22.9732 33.2005 23.5077 33.2005 24.0651ZM23.4505 32.4709C23.4505 33.0283 23.2451 33.5628 22.8794 33.9569C22.5137 34.351 22.0177 34.5724 21.5005 34.5724C20.9834 34.5724 20.4874 34.351 20.1217 33.9569C19.756 33.5628 19.5505 33.0283 19.5505 32.4709C19.5505 31.9136 19.756 31.3791 20.1217 30.985C20.4874 30.5909 20.9834 30.3695 21.5005 30.3695C22.0177 30.3695 22.5137 30.5909 22.8794 30.985C23.2451 31.3791 23.4505 31.9136 23.4505 32.4709ZM23.4505 24.0651C23.4505 24.6224 23.2451 25.1569 22.8794 25.551C22.5137 25.9451 22.0177 26.1665 21.5005 26.1665C20.9834 26.1665 20.4874 25.9451 20.1217 25.551C19.756 25.1569 19.5505 24.6224 19.5505 24.0651C19.5505 23.5077 19.756 22.9732 20.1217 22.5791C20.4874 22.185 20.9834 21.9636 21.5005 21.9636C22.0177 21.9636 22.5137 22.185 22.8794 22.5791C23.2451 22.9732 23.4505 23.5077 23.4505 24.0651ZM13.7005 32.4709C13.7005 33.0283 13.4951 33.5628 13.1294 33.9569C12.7637 34.351 12.2677 34.5724 11.7505 34.5724C11.2334 34.5724 10.7374 34.351 10.3717 33.9569C10.006 33.5628 9.80054 33.0283 9.80054 32.4709C9.80054 31.9136 10.006 31.3791 10.3717 30.985C10.7374 30.5909 11.2334 30.3695 11.7505 30.3695C12.2677 30.3695 12.7637 30.5909 13.1294 30.985C13.4951 31.3791 13.7005 31.9136 13.7005 32.4709ZM13.7005 24.0651C13.7005 24.6224 13.4951 25.1569 13.1294 25.551C12.7637 25.9451 12.2677 26.1665 11.7505 26.1665C11.2334 26.1665 10.7374 25.9451 10.3717 25.551C10.006 25.1569 9.80054 24.6224 9.80054 24.0651C9.80054 23.5077 10.006 22.9732 10.3717 22.5791C10.7374 22.185 11.2334 21.9636 11.7505 21.9636C12.2677 21.9636 12.7637 22.185 13.1294 22.5791C13.4951 22.9732 13.7005 23.5077 13.7005 24.0651Z" fill="#6E7491"/>
</g>
</svg>
