<svg width="37" height="38" viewBox="0 0 37 38" fill="none" xmlns="http://www.w3.org/2000/svg">
<g id="Mask group">
<mask id="mask0_2749_20397" style="mask-type:luminance" maskUnits="userSpaceOnUse" x="0" y="0" width="37" height="38">
<g id="Group">
<path id="Vector" d="M18.7339 15.1907C19.5885 15.1907 20.4348 15.0201 21.2243 14.6887C22.0139 14.3572 22.7313 13.8714 23.3355 13.259C23.9398 12.6465 24.4192 11.9195 24.7462 11.1193C25.0733 10.3191 25.2416 9.46146 25.2416 8.59535C25.2416 7.72923 25.0733 6.8716 24.7462 6.07142C24.4192 5.27123 23.9398 4.54417 23.3355 3.93173C22.7313 3.3193 22.0139 2.83349 21.2243 2.50204C20.4348 2.17059 19.5885 2 18.7339 2C17.008 2 15.3528 2.69487 14.1323 3.93173C12.9119 5.1686 12.2263 6.84615 12.2263 8.59535C12.2263 10.3445 12.9119 12.0221 14.1323 13.259C15.3528 14.4958 17.008 15.1907 18.7339 15.1907ZM2 34.7883V35.9189H35.4679V34.7883C35.4679 30.5673 35.4679 28.4568 34.6572 26.8437C33.9442 25.4255 32.8065 24.2725 31.4071 23.5498C29.8155 22.7282 27.7331 22.7282 23.5682 22.7282H13.8997C9.7348 22.7282 7.65236 22.7282 6.06077 23.5498C4.66141 24.2725 3.5237 25.4255 2.81067 26.8437C2 28.4568 2 30.5673 2 34.7883Z" fill="white" stroke="white" stroke-width="2.70848" stroke-linecap="round" stroke-linejoin="round"/>
</g>
</mask>
<g mask="url(#mask0_2749_20397)">
<path id="Vector_2" d="M-3.57812 -3.65308H41.0457V41.5721H-3.57812V-3.65308Z" fill="#6E7491"/>
</g>
</g>
</svg>
