<svg width="40" height="25" viewBox="0 0 40 25" fill="none" xmlns="http://www.w3.org/2000/svg">
<path id="Vector" fill-rule="evenodd" clip-rule="evenodd" d="M25.2174 21.1891L32.7425 24.1972C33.9836 24.6933 35.3428 24.7889 36.5211 24.463C37.6994 24.137 38.6002 23.4162 39.0254 22.4591C39.4506 21.502 39.3653 20.3869 38.7883 19.3593C38.2113 18.3317 37.1899 17.4757 35.9487 16.9795L9.96282 6.5918C9.61534 6.45273 9.30791 6.24182 9.07498 5.98268C8.84204 5.72354 8.69279 5.42641 8.64394 5.12456L8.3786 3.49881C8.32975 3.19697 8.1805 2.89984 7.94757 2.6407C7.71463 2.38156 7.40721 2.17064 7.05973 2.03157L3.56861 0.636016C3.25878 0.511912 2.92736 0.449065 2.60411 0.453113C2.28086 0.457162 1.97589 0.527979 1.71657 0.65921C1.45724 0.790442 1.25168 0.97798 1.11832 1.20499C0.984972 1.43201 0.928004 1.69139 0.952532 1.95987L1.75776 10.7811C1.78677 11.0987 1.92862 11.4161 2.16568 11.694C2.40275 11.9719 2.72461 12.198 3.09132 12.3443L10.3225 15.2349C10.6282 15.3573 10.9035 15.5356 11.1244 15.7541C11.3453 15.9726 11.5051 16.2248 11.5897 16.4885C11.6744 16.7523 11.6813 17.0196 11.61 17.2671C11.5387 17.5146 11.3912 17.7348 11.1805 17.9084L8.04531 20.4952C7.83515 20.6688 7.68811 20.8888 7.61701 21.136C7.54591 21.3833 7.5529 21.6503 7.63739 21.9137C7.72188 22.1771 7.88129 22.429 8.10172 22.6473C8.32215 22.8657 8.59691 23.0439 8.90205 23.1665L12.7245 24.6945C13.0052 24.8068 13.3039 24.869 13.5986 24.8764C13.8933 24.8839 14.1764 24.8364 14.4269 24.7376L23.5168 21.1467C23.767 21.048 24.0498 21.0005 24.3441 21.0079C24.6385 21.0152 24.9369 21.0771 25.2174 21.1891ZM15.9989 7.30484L24.8905 10.8592L22.9076 5.64686C22.8128 5.39788 22.6514 5.16199 22.436 4.95786C22.2206 4.75374 21.9571 4.58699 21.6665 4.47082L18.1436 3.06254C17.8246 2.93517 17.483 2.87278 17.1512 2.88129C16.8194 2.8898 16.5085 2.96892 16.2479 3.11116C15.9873 3.25339 15.7857 3.45401 15.6622 3.69399C15.5387 3.93397 15.4974 4.20535 15.5422 4.48236L15.9989 7.30484Z" fill="#6E7491"/>
</svg>
